HIERARCHY
ROOT Hips
{
  OFFSET 0 89.5177 0.535
  CHANNELS 6 Xposition Yposition Zposition Zrotation Xrotation Yrotation
  JOINT Spine
  {
    OFFSET 12.0259 -0.162855 1.69034e-005
    CHANNELS 3 Zrotation Xrotation Yrotation
    JOINT Spine1
    {
      OFFSET 15.3169 -0.0121922 0
      CHANNELS 3 Zrotation Xrotation Yrotation
      JOINT Spine2
      {
        OFFSET 15.3176 -0.0121908 0
        CHANNELS 3 Zrotation Xrotation Yrotation
        JOINT Neck
        {
          OFFSET 19.9142 1.56338 0
          CHANNELS 3 Zrotation Xrotation Yrotation
          JOINT Head
          {
            OFFSET 6.92651 0 0
            CHANNELS 3 Zrotation Xrotation Yrotation
            End Site
            {
              OFFSET 20.7666 0 0
            }
          }
          JOINT LeftShoulder
          {
            OFFSET -6.20654 0.708824 7.28219
            CHANNELS 3 Zrotation Xrotation Yrotation
            JOINT LeftArm
            {
              OFFSET 14.108 0 -1.52588e-005
              CHANNELS 3 Zrotation Xrotation Yrotation
              JOINT LeftForeArm
              {
                OFFSET 28.5802 0 0
                CHANNELS 3 Zrotation Xrotation Yrotation
                JOINT LeftHand
                {
                  OFFSET 27.092 0 0
                  CHANNELS 3 Zrotation Xrotation Yrotation
                  End Site
                  {
                    OFFSET 9.55928 -0.186424 0.145352
                  }
                }
              }
            }
          }
          JOINT RightShoulder
          {
            OFFSET -6.20654 0.708866 -7.28218
            CHANNELS 3 Zrotation Xrotation Yrotation
            JOINT RightArm
            {
              OFFSET 14.108 0 1.52588e-005
              CHANNELS 3 Zrotation Xrotation Yrotation
              JOINT RightForeArm
              {
                OFFSET 28.5802 0 0
                CHANNELS 3 Zrotation Xrotation Yrotation
                JOINT RightHand
                {
                  OFFSET 27.092 0 0
                  CHANNELS 3 Zrotation Xrotation Yrotation
                  End Site
                  {
                    OFFSET 9.55929 -0.186417 -0.145354
                  }
                }
              }
            }
          }
        }
      }
    }
  }
  JOINT LeftUpLeg
  {
    OFFSET 0.005 -0.535 8.837
    CHANNELS 3 Zrotation Xrotation Yrotation
    JOINT LeftLeg
    {
      OFFSET 39.9035 0 0
      CHANNELS 3 Zrotation Xrotation Yrotation
      JOINT LeftFoot
      {
        OFFSET 39.6689 0 0
        CHANNELS 3 Zrotation Xrotation Yrotation
        JOINT LeftToe
        {
          OFFSET 10.1624 13.6296 0
          CHANNELS 3 Zrotation Xrotation Yrotation
          End Site
          {
            OFFSET 8.38147 0 0
          }
        }
      }
    }
  }
  JOINT RightUpLeg
  {
    OFFSET 0.005 -0.535 -8.837
    CHANNELS 3 Zrotation Xrotation Yrotation
    JOINT RightLeg
    {
      OFFSET 39.9035 0 0
      CHANNELS 3 Zrotation Xrotation Yrotation
      JOINT RightFoot
      {
        OFFSET 39.6689 0 0
        CHANNELS 3 Zrotation Xrotation Yrotation
        JOINT RightToe
        {
          OFFSET 10.1624 13.6296 0
          CHANNELS 3 Zrotation Xrotation Yrotation
          End Site
          {
            OFFSET 8.38147 0 0
          }
        }
      }
    }
  }
}
MOTION
Frames:	9
Frame Time:	0.0333333
270.454 89.2001 -31.5443 16.7255 -82.1101 -67.5768 2.36959 -1.31582 -1.3851 4.70862 -2.68694 -2.71557 4.70862 -2.68694 -2.71558 -8.30748e-012 -9.0191e-006 -5.27751e-005 12.2148 -6.02753 7.52317 -178.609 -15.8741 -84.9276 5.67158 -50.2375 20.6393 -14.0888 3.18055e-015 -3.18055e-015 -64.9143 -30.6618 -53.7785 179.107 13.1948 93.9053 57.4375 62.2419 -72.4126 -7.22724 0 -0 -49.8471 25.776 40.7268 6.74688 3.10419 176.807 -11.4397 -3.18055e-015 -3.97569e-016 9.614 5.54345 -10.4876 90 -5.46968e-015 -9.93923e-017 3.9489 -8.47674 172.371 -16.6434 7.95139e-016 1.98785e-016 13.9725 -3.60239 1.64852 90 -2.05038e-020 -7.95139e-016 
270.468 89.2012 -31.4972 16.634 -82.095 -67.681 2.3643 -1.31822 -1.39484 4.69775 -2.69202 -2.73508 4.69775 -2.69202 -2.73509 -8.30828e-012 -9.0191e-006 -5.27751e-005 12.2136 -6.00876 7.52644 -178.61 -15.7641 -84.8948 5.64605 -50.1894 20.6284 -14.0486 -6.36111e-015 -7.95139e-016 -64.9437 -30.6218 -53.7725 179.108 13.0381 93.9468 57.904 62.1143 -72.7878 -7.25294 0 7.95139e-016 -49.8807 25.8373 40.8279 6.70538 3.12251 176.819 -11.4793 -7.95139e-016 5.96354e-016 9.58131 5.51827 -10.4086 90 -1.65861e-015 -0 3.9233 -8.49019 172.389 -16.6638 0 -0 13.9493 -3.62536 1.63573 90 -1.74232e-020 1.19271e-015 
270.482 89.2011 -31.454 16.4659 -82.0739 -67.8616 2.3691 -1.3137 -1.40692 4.71299 -2.67727 -2.75934 4.71299 -2.67727 -2.75935 -8.30748e-012 -9.0191e-006 -5.27751e-005 12.0922 -6.07401 7.52279 -178.598 -15.7882 -84.859 5.4956 -50.1353 20.6683 -14.0445 -9.54166e-015 -0 -64.8923 -30.692 -53.7668 179.125 13.1111 93.8515 58.0165 62.1443 -73.005 -7.23535 -4.77083e-015 7.95139e-016 -49.8573 25.9829 40.9411 6.70446 3.10092 176.834 -11.4788 -1.59028e-015 -1.98785e-016 9.54141 5.48123 -10.3048 90 -1.2657e-015 9.93923e-017 3.90242 -8.48026 172.409 -16.6976 7.95139e-016 -3.97569e-016 13.9326 -3.63554 1.62098 90 -5.45623e-021 -0 
270.492 89.2009 -31.4138 16.3159 -82.0518 -68.0352 2.37679 -1.30918 -1.41192 4.72252 -2.67493 -2.76928 4.72252 -2.67493 -2.76929 -8.30987e-012 -9.0191e-006 -5.27751e-005 11.9903 -6.09833 7.5128 -178.589 -15.7385 -84.8109 5.47027 -50.0425 20.701 -14.0033 0 5.56597e-015 -64.8652 -30.7527 -53.7869 179.131 13.0796 93.8358 58.1046 62.0695 -73.1253 -7.26209 1.59028e-015 -7.95139e-016 -49.885 26.1599 41.1335 6.62043 3.20228 176.889 -11.6472 7.95139e-016 9.93923e-016 9.62212 5.54363 -10.489 90 -2.93052e-015 -0 3.89831 -8.46475 172.439 -16.7139 0 -0 13.9195 -3.64834 1.61016 90 0 -0 
270.504 89.2006 -31.3765 16.1858 -82.0347 -68.1704 2.38015 -1.31396 -1.4227 4.72889 -2.68502 -2.79058 4.72889 -2.68502 -2.79059 -8.30907e-012 -9.0191e-006 -5.27751e-005 11.8727 -6.05785 7.49487 -178.585 -15.6839 -84.7774 5.48689 -49.911 20.7099 -13.9481 -9.54166e-015 3.97569e-015 -64.917 -30.7692 -53.8717 179.139 13.0216 93.8159 58.2468 62.0533 -73.2566 -7.18821 0 7.95139e-016 -49.8444 26.1113 41.0689 6.58343 3.21384 176.901 -11.7138 0 3.97569e-016 9.62421 5.54303 -10.4805 90 -5.5287e-016 9.93923e-017 3.86955 -8.41918 172.449 -16.7599 1.59028e-015 5.96354e-016 13.9124 -3.61761 1.59981 90 0 1.19271e-015 
270.521 89.2001 -31.3487 16.0479 -82.0435 -68.3277 2.37408 -1.31065 -1.43566 4.71651 -2.67877 -2.81678 4.71651 -2.67877 -2.81679 -8.30669e-012 -9.0191e-006 -5.27751e-005 11.7907 -6.02619 7.5072 -178.584 -15.6574 -84.7675 5.46554 -49.8271 20.7197 -13.9071 -6.36111e-015 -1.59028e-015 -64.8697 -30.8055 -53.8416 179.145 13.0023 93.7972 58.3047 62.021 -73.3415 -7.12764 0 7.95139e-016 -49.9561 26.2553 41.3441 6.58908 3.17341 176.913 -11.6619 -1.59028e-015 1.98785e-016 9.57645 5.49657 -10.3536 90 6.78663e-016 1.98785e-016 3.83289 -8.43498 172.474 -16.7953 -7.95139e-016 -3.97569e-016 13.9419 -3.65732 1.58826 90 3.88251e-019 1.59028e-015 
270.524 89.1994 -31.3305 15.8848 -82.0717 -68.4973 2.35945 -1.30343 -1.44827 4.6871 -2.66451 -2.84264 4.6871 -2.66451 -2.84265 -8.30828e-012 -9.0191e-006 -5.27751e-005 11.7473 -6.06443 7.45879 -178.576 -15.6504 -84.7354 5.44262 -49.8095 20.7427 -13.9336 -3.18055e-015 2.38542e-015 -64.8155 -30.9419 -53.8956 179.153 12.9548 93.7747 58.5221 62.0251 -73.4618 -7.12861 1.59028e-015 -0 -49.7296 26.1668 41.0433 6.56086 3.29784 176.925 -11.6632 7.95139e-016 3.97569e-016 9.58673 5.53567 -10.4286 90 -2.18353e-015 -9.93923e-017 3.7991 -8.3824 172.482 -16.7987 1.59028e-015 -3.97569e-016 13.9095 -3.63603 1.58385 90 1.94126e-019 -0 
270.534 89.1987 -31.3272 15.7823 -82.0895 -68.6126 2.34298 -1.30077 -1.45772 4.65398 -2.65917 -2.86202 4.65398 -2.65917 -2.86203 -8.30589e-012 -9.0191e-006 -5.27751e-005 11.7904 -6.0407 7.4621 -178.568 -15.6494 -84.7055 5.41236 -49.7994 20.7315 -13.9146 0 2.38542e-015 -64.8696 -30.8654 -53.8989 179.151 12.9596 93.7787 58.6672 62.025 -73.6158 -7.17648 1.59028e-015 -1.59028e-015 -49.9233 26.2717 41.2793 6.55288 3.30678 176.949 -11.6669 0 -1.98785e-016 9.61711 5.56414 -10.5104 90 1.8108e-015 9.93923e-017 3.76454 -8.39831 172.497 -16.8339 7.95139e-016 1.98785e-016 13.959 -3.66811 1.5782 90 -3.88251e-019 -0 
270.537 89.1981 -31.3285 15.7499 -82.1095 -68.6462 2.32372 -1.29982 -1.46667 4.61519 -2.65891 -2.8804 4.61519 -2.65891 -2.88041 -8.30669e-012 -9.0191e-006 -5.27751e-005 11.7972 -6.05209 7.3841 -178.562 -15.6457 -84.6808 5.41002 -49.8179 20.7439 -13.8906 -3.18055e-015 -0 -64.902 -30.8744 -53.9472 179.148 12.9589 93.795 58.7771 62.08 -73.7435 -7.16065 3.18055e-015 -0 -49.838 26.2586 41.2122 6.55822 3.28086 176.944 -11.6193 7.95139e-016 -3.97569e-016 9.58375 5.53603 -10.4265 90 7.54761e-016 -2.98177e-016 3.74954 -8.38011 172.502 -16.831 -1.59028e-015 -7.95139e-016 13.9489 -3.67454 1.57725 90 3.88251e-019 -0 
